<?xml version="1.0"?>
<svg xmlns="http://www.w3.org/2000/svg" width="271" height="100" viewBox="0 0 271 100" fill="none">
<path d="M184.184 46.4578H94.9838C91.9605 46.4578 89.5088 44.0023 89.5088 40.9744V28.4124C89.5088 25.3845 91.9605 22.929 94.9838 22.929H184.186C187.209 22.929 189.661 25.3845 189.661 28.4124V40.9764C189.659 44.0023 187.207 46.4578 184.184 46.4578Z" fill="#FF4713"/>
<path d="M143.953 28.7746H146.362V40.6181H145.407L145.375 40.5841L138.729 33.5676V40.6181H136.316V28.7746H137.199L137.229 28.8066L143.955 35.9031V28.7746H143.953ZM126.866 28.8447L131.324 40.6101L128.753 40.6201L128.093 38.837H123.242L122.582 40.6201H120.005L120.063 40.466L124.495 28.7746H126.84L126.866 28.8447ZM127.24 36.2994L125.723 32.1768L124.135 36.3374L127.24 36.2994ZM112.569 40.6201H114.975V28.7666H112.569V40.6201ZM104.529 35.9031L97.803 28.8066L97.7751 28.7746H96.8899V40.6181H99.3057V33.5676L105.954 40.5841L105.986 40.6181H106.941V28.7746H104.529V35.9031ZM166.168 40.6201H168.572V28.7666H166.168V40.6201ZM181.574 37.1759C180.875 37.7723 180.337 38.0745 179.378 38.0745C178.425 38.0745 177.644 37.7643 177.06 37.1539C176.477 36.5435 176.179 35.705 176.173 34.6603C176.173 33.6857 176.469 32.8772 177.05 32.2588C177.632 31.6364 178.411 31.3182 179.366 31.3142C180.305 31.3142 180.851 31.6204 181.576 32.2228L181.652 32.2848L183.259 30.4297L183.177 30.3556C182.04 29.3069 180.961 28.7766 179.364 28.7766C177.786 28.7766 176.445 29.351 175.376 30.4777C174.309 31.6104 173.763 33.0213 173.759 34.6763C173.759 36.3654 174.303 37.7943 175.372 38.919C176.443 40.0397 177.784 40.6141 179.364 40.6201C180.957 40.6201 182.04 40.0877 183.177 39.0451L183.259 38.971L181.652 37.1099L181.574 37.1759ZM151.358 31.1681H155.026V40.6201H157.438V31.1681H161.111V28.7746H151.358V31.1681Z" fill="white"/>
<path d="M103.084 76.9871V80.7615H89.5088V56.7483H93.4112V76.9871H103.084ZM112.594 56.7483V80.7615H108.691V56.7483H112.594ZM143.176 69.9887C143.176 76.5408 138.492 81.2057 131.534 81.2057C124.135 81.2057 118.874 75.6482 118.874 68.7539C118.874 61.8595 124.203 56.302 131.33 56.302C135.844 56.302 139.679 58.5995 141.683 61.9956L138.322 63.9508C137.099 61.7214 134.454 60.1424 131.33 60.1424C126.307 60.1424 122.778 63.8808 122.778 68.7859C122.778 73.6229 126.241 77.3613 131.568 77.3613C135.878 77.3613 138.526 75.0979 139.239 71.8718H131.296V68.3376H143.176V69.9887ZM167.451 56.7483V80.7615H163.549V70.3669H153.366V80.7615H149.464V56.7483H153.366V66.5925H163.549V56.7483H167.451ZM190.368 60.5207H183.682V80.7595H179.78V60.5207H173.06V56.7483H190.37V60.5207H190.368ZM194.041 75.306L197.402 73.3168C198.251 75.7523 200.083 77.3653 203.306 77.3653C206.395 77.3653 207.718 75.9584 207.718 74.2093C207.718 72.082 205.852 71.3615 202.321 70.2648C198.623 69.1321 195.024 67.7592 195.024 63.2324C195.024 58.8076 198.655 56.304 202.661 56.304C206.563 56.304 209.449 58.3973 210.943 61.5873L207.65 63.5086C206.801 61.5873 205.308 60.1464 202.661 60.1464C200.387 60.1464 198.928 61.3132 198.928 63.1303C198.928 64.9835 200.251 65.772 203.714 66.8687C207.65 68.1375 211.623 69.3723 211.623 74.1413C211.623 78.5321 208.16 81.2077 203.204 81.2077C198.521 81.2057 195.296 78.8743 194.041 75.306ZM235.521 56.7483V80.7615H231.618V70.3669H221.436V80.7615H217.533V56.7483H221.436V66.5925H231.618V56.7483H235.521ZM246.898 56.7483V80.7615H242.996V56.7483H246.898ZM271 64.6373C271 69.0621 267.605 72.5263 263.125 72.5263H258.272V80.7595H254.369V56.7483H263.125C267.605 56.7483 271 60.1785 271 64.6373ZM267.096 64.6373C267.096 62.2017 265.433 60.4526 263.125 60.4526H258.272V68.8219H263.125C265.433 68.8239 267.096 67.0388 267.096 64.6373Z" fill="black"/>
<path d="M72.0527 18.9964L54.335 55.4434C53.4119 57.3446 50.6784 57.1825 49.981 55.1853L45.9487 43.64C45.7109 42.9576 45.1794 42.4212 44.506 42.1811L33.0825 38.1065C31.1063 37.402 30.9465 34.6403 32.8268 33.7057L68.8876 15.7984C70.9118 14.7918 73.0478 16.9511 72.0527 18.9964ZM71.8309 32.2288C71.773 32.1187 71.6451 32.0507 71.5372 32.0527C71.4133 32.0547 71.3034 32.1267 71.2495 32.2388L67.7727 39.3893C67.7347 39.4693 67.7287 39.5614 67.7567 39.6455C68.9156 42.9796 69.5031 46.4638 69.5031 50C69.5031 58.3433 66.288 66.1882 60.4514 72.088C54.6148 77.9877 46.8539 81.2357 38.5975 81.2357C36.2137 81.2357 34.4753 80.4192 33.4282 78.8102C29.7016 73.0806 35.1227 58.8276 37.6284 52.9639C37.8761 52.3815 37.7562 51.7431 37.3146 51.2968C36.8731 50.8525 36.2416 50.7305 35.6662 50.9826C29.8715 53.5222 15.7804 59.0197 10.1036 55.2513C8.50511 54.1906 7.69385 52.4235 7.69385 50C7.69385 41.6567 10.9089 33.8138 16.7455 27.9121C22.5802 22.0123 30.343 18.7643 38.5975 18.7643C41.8525 18.7643 45.0695 19.2806 48.1607 20.2952C48.2406 20.3213 48.3305 20.3153 48.4065 20.2772L55.5998 16.705C55.7117 16.6489 55.7817 16.5349 55.7837 16.4108C55.7837 16.2847 55.7157 16.1706 55.6038 16.1126C50.2907 13.3849 44.57 12 38.5975 12C17.8665 12 1 29.0468 1 50C1 70.9532 17.8665 88 38.5975 88C59.3284 88 76.1949 70.9532 76.1949 50C76.1949 43.8181 74.6843 37.6722 71.8309 32.2288Z" fill="black"/>
</svg>
